<svg width="439" height="329" viewBox="0 0 439 329" fill="none" xmlns="http://www.w3.org/2000/svg">
<path d="M305.728 119.77H391.618C397.602 119.77 402.434 124.973 402.434 131.367V223.446C402.434 229.861 397.583 235.04 391.618 235.04H305.728C299.744 235.04 294.909 229.839 294.909 223.446V131.389C294.89 124.973 299.744 119.77 305.728 119.77Z" fill="white"/>
<path d="M147.929 158.978H46.427C39.5539 158.978 33.9978 164.53 33.9978 171.398V266.69C33.9978 273.561 39.5539 279.113 46.427 279.113H147.929C154.805 279.113 160.361 273.561 160.361 266.69V171.398C160.361 164.552 154.78 158.978 147.929 158.978Z" fill="white"/>
<path d="M47.4998 180.72C50.3231 180.72 52.6087 178.436 52.6087 175.615C52.6087 172.794 50.3231 170.507 47.4998 170.507C44.6792 170.507 42.3882 172.794 42.3882 175.615C42.3882 178.436 44.6792 180.72 47.4998 180.72Z" fill="white"/>
<path d="M62.3407 180.72C65.1641 180.72 67.4523 178.436 67.4523 175.615C67.4523 172.794 65.1641 170.507 62.3407 170.507C59.5202 170.507 57.2291 172.794 57.2291 175.615C57.2291 178.436 59.5202 180.72 62.3407 180.72Z" fill="white"/>
<path d="M77.2036 180.72C80.027 180.72 82.3153 178.436 82.3153 175.615C82.3153 172.794 80.027 170.507 77.2036 170.507C74.3831 170.507 72.0948 172.794 72.0948 175.615C72.0948 178.436 74.3831 180.72 77.2036 180.72Z" fill="white"/>
<path d="M65.7896 56.3933L79.2697 56.5002V109.244H74.3803C68.7831 109.244 64.2504 104.712 64.2504 99.1194V58.0931L65.3836 57.331L65.7896 56.3933Z" fill="#9EC5FF"/>
<path d="M94.2917 56.5002H79.2697V109.244H94.2917V56.5002Z" fill="#9EC5FF"/>
<path d="M109.33 56.5002H94.3082V109.244H109.33V56.5002Z" fill="#9EC5FF"/>
<path d="M124.349 56.5002H109.33V109.244H124.349V56.5002Z" fill="#9EC5FF"/>
<path d="M139.372 56.5002H124.349V109.244H139.372V56.5002Z" fill="#9EC5FF"/>
<path d="M139.388 56.5002L152.037 56.4125L154.41 58.0931V99.1194C154.41 104.712 149.875 109.244 144.277 109.244H139.388V56.5002Z" fill="#9EC5FF"/>
<path d="M74.3803 33.1357H144.277C149.875 33.1357 154.41 37.6677 154.41 43.2607V58.0931H144.135L139.443 63.2612L134.748 58.0931H114.022L109.47 65.9343L104.636 58.0931H83.9121L79.2176 66.5896L74.523 58.0931H64.2504V43.2607C64.2504 37.6677 68.7831 33.1357 74.3803 33.1357Z" fill="white"/>
<path d="M79.2175 50.4823C82.3975 50.4823 84.9739 47.9079 84.9739 44.7303C84.9739 41.5527 82.3975 38.9783 79.2175 38.9783C76.0375 38.9783 73.4612 41.5527 73.4612 44.7303C73.4612 47.9079 76.0375 50.4823 79.2175 50.4823Z" fill="#1F2322"/>
<path d="M79.2176 48.3575C81.2232 48.3575 82.8475 46.7345 82.8475 44.7303C82.8475 42.7261 81.2232 41.1003 79.2176 41.1003C77.2119 41.1003 75.5848 42.7261 75.5848 44.7303C75.5848 46.7345 77.2119 48.3575 79.2176 48.3575Z" fill="#6171FF"/>
<path d="M91.0843 46.589C92.1132 46.589 92.9445 45.7556 92.9445 44.7302C92.9445 43.7021 92.1132 42.8713 91.0843 42.8713C90.0581 42.8713 89.224 43.7021 89.224 44.7302C89.224 45.7556 90.0581 46.589 91.0843 46.589Z" fill="#9EC5FF"/>
<path d="M94.3631 109.244V58.0931" stroke="#020407" stroke-width="4" stroke-linecap="round" stroke-linejoin="round"/>
<path d="M109.33 109.244V87.6154" stroke="#020407" stroke-width="4" stroke-linecap="round" stroke-linejoin="round"/>
<path d="M124.473 109.244V58.0931" stroke="#020407" stroke-width="4" stroke-linecap="round" stroke-linejoin="round"/>
<path d="M139.388 109.244V87.6154" stroke="#020407" stroke-width="4" stroke-linecap="round" stroke-linejoin="round"/>
<path d="M79.2697 109.244V87.6154" stroke="#020407" stroke-width="4" stroke-linecap="round" stroke-linejoin="round"/>
<path d="M154.41 58.0931H94.3082H64.2504" stroke="#020407" stroke-width="4" stroke-linecap="round" stroke-linejoin="round"/>
<path d="M74.523 58.0931H83.9121V86.3762C83.9121 87.6675 82.8667 88.7121 81.5744 88.7121H76.8607C75.5684 88.7121 74.523 87.6675 74.523 86.3762V58.0931Z" fill="#1F2322"/>
<path d="M104.636 58.0931H114.022V86.3762C114.022 87.6675 112.979 88.7121 111.684 88.7121H106.973C105.681 88.7121 104.636 87.6675 104.636 86.3762V58.0931Z" fill="#1F2322"/>
<path d="M134.748 58.0931H144.135V86.3762C144.135 87.6675 143.089 88.7121 141.797 88.7121H137.086C135.794 88.7121 134.748 87.6675 134.748 86.3762V58.0931Z" fill="#1F2322"/>
<path d="M264.78 304.972C273.409 301.616 297.952 285.654 289.866 275.666C281.78 265.678 256.038 269.18 254.73 273.078C253.078 278.03 271.727 274.301 275.058 264.371C278.392 254.44 252.222 261.837 249.832 254.555C247.895 248.636 263.754 241.752 263.784 230.626" stroke="#1F2322" stroke-width="4" stroke-linecap="round" stroke-linejoin="round"/>
<path d="M348.039 163.439C339.844 163.439 333.193 170.082 333.193 178.274C333.193 186.463 339.844 193.109 348.039 193.109C356.238 193.109 362.888 186.463 362.888 178.274C362.888 170.123 356.238 163.439 348.039 163.439ZM348.039 182.367C345.781 182.367 343.943 180.531 343.943 178.274C343.943 176.018 345.781 174.178 348.039 174.178C350.3 174.178 352.138 176.018 352.138 178.274C352.138 180.531 350.3 182.367 348.039 182.367Z" fill="#1F2322"/>
<path d="M348.039 148.894C331.771 148.894 318.599 162.06 318.599 178.315C318.599 194.571 331.771 207.736 348.039 207.736C364.31 207.736 377.482 194.571 377.482 178.315C377.441 162.06 364.268 148.894 348.039 148.894ZM348.039 189.641C341.767 189.641 336.708 184.583 336.708 178.315C336.708 172.048 341.767 166.989 348.039 166.989C354.314 166.989 359.374 172.048 359.374 178.315C359.374 184.583 354.273 189.641 348.039 189.641Z" fill="#6171FF"/>
<path d="M117.172 184.744L85.7724 199.506C85.4623 199.659 85.2566 199.969 85.2566 200.328L84.2277 240.91C84.2277 241.116 84.1261 241.322 83.9203 241.426L75.7357 246.054C72.0289 248.214 70.7421 252.998 72.9042 256.702C73.6231 257.988 74.7562 259.016 76.043 259.685C79.8514 261.64 84.5871 260.198 86.5434 256.34C87.1113 255.211 87.4186 254.026 87.4186 252.741V241.631L88.0881 217.406L113.619 205.883L112.025 228.257C112.025 228.515 111.871 228.721 111.662 228.822L103.324 233.505C99.6201 235.665 98.3333 240.447 100.493 244.151C101.214 245.437 102.347 246.465 103.634 247.134C107.443 249.089 112.178 247.649 114.135 243.792C114.7 242.659 115.01 241.478 115.01 240.192V226.92L117.737 185.104C117.737 184.794 117.43 184.588 117.172 184.744ZM88.1402 214.472L88.4475 203.928C88.4475 203.826 88.4997 203.722 88.6039 203.673L114.135 191.122C114.392 191.017 114.65 191.174 114.65 191.481L113.877 202.231L88.1402 214.472Z" fill="#7490DC"/>
<path d="M298.589 56.1905L291.117 44.7824L302.715 50.8991L306.705 30.3997L310.99 52.2727L329.352 43.2937L315.965 59.0309L332.652 75.3383L312.228 67.9166L310.669 90.7081L303.516 70.025L285.454 80.468L298.086 63.1297L279.816 57.3119L298.589 56.1905Z" fill="#2E46FF"/>
<path d="M145.421 90.4147H293.578C295.628 90.4147 297.653 90.8177 299.546 91.6018C301.439 92.3832 303.157 93.5319 304.606 94.9795C306.054 96.4271 307.204 98.1434 307.986 100.035C308.771 101.927 309.174 103.953 309.174 105.998V214.228C309.174 216.274 308.771 218.3 307.986 220.191C307.204 222.08 306.054 223.799 304.606 225.247C303.157 226.695 301.437 227.843 299.546 228.625C297.653 229.409 295.628 229.812 293.578 229.812H145.421C143.372 229.812 141.347 229.409 139.454 228.625C137.561 227.843 135.843 226.695 134.394 225.247C132.946 223.799 131.796 222.08 131.014 220.191C130.229 218.3 129.826 216.274 129.826 214.228V105.998C129.826 103.953 130.229 101.927 131.014 100.035C131.796 98.1434 132.946 96.4271 134.394 94.9795C135.843 93.5319 137.561 92.3832 139.454 91.6018C141.347 90.8177 143.372 90.4147 145.421 90.4147Z" fill="white"/>
<path d="M210.056 111.863C210.059 109.387 211.044 107.01 212.797 105.261C214.55 103.509 216.926 102.525 219.407 102.522H287.682C290.163 102.525 292.536 103.509 294.289 105.261C296.042 107.01 297.03 109.387 297.033 111.863V190.688C287.493 184.073 275.124 183.996 275.001 183.996C274.957 184.081 269.606 192.904 255.783 192.904C254.568 192.901 253.352 192.838 252.145 192.714C245.404 192.018 244.844 184.07 244.839 183.988C241.288 184.119 237.751 184.525 234.264 185.208C225.251 189.962 222.535 187.508 216.8 192.953C214.314 195.336 212.062 197.946 210.07 200.753L210.056 200.772V111.863Z" fill="#9EC5FF"/>
<path d="M255.119 213.025C254.587 213.025 254.055 213.006 253.544 212.97C249.528 212.687 243.442 210.497 237.274 201.661C233.545 196.322 230.977 189.981 230.733 187.165C230.667 186.42 230.782 185.989 231.059 185.918C235.576 184.791 240.196 184.141 244.847 183.982L244.838 178.112C244.751 178.11 244.663 178.112 244.57 178.11C242.065 178.09 239.573 177.654 237.211 176.818C233.109 175.294 230.604 172.64 229.762 168.925C228.936 165.317 229.273 161.432 229.63 157.32C229.784 155.579 229.94 153.775 230.006 151.976C230.299 143.809 230.834 137.796 231.647 133.599C232.448 129.442 235.145 125.853 239.444 123.221C243.467 120.759 248.507 119.405 253.64 119.405C259.474 119.405 264.893 121.184 268.896 124.422C276.029 130.169 275.258 143.822 275.253 143.959C275.278 143.97 278.293 145.766 278.856 149.27C279.322 152.162 278.027 155.367 275.006 158.786L275.009 183.988C275.012 183.988 275.02 183.988 275.039 183.988C275.695 183.988 286.714 184.199 295.787 189.871C295.908 189.948 295.935 190.096 295.875 190.313C295.406 191.936 289.787 197.518 281.701 202.916C276.046 206.691 265.074 213.025 255.119 213.025Z" fill="#935757"/>
<path d="M274.998 170.112C274.957 170.09 270.745 167.859 268.613 163.601C268.523 163.414 274.973 158.825 274.995 158.803L275.009 170.12L274.998 170.112Z" fill="#FFC930"/>
<path d="M261.104 147.973C259.408 145.61 257.235 142.018 256.497 138.309C256.464 138.205 247.656 140.499 243.744 140.499C239.233 140.499 236.042 139.51 234.154 138.679C232.11 137.782 231.12 136.869 231.112 136.861C231.279 135.636 231.479 134.523 231.647 133.599C232.448 129.442 235.145 125.853 239.444 123.221C243.464 120.759 248.507 119.405 253.64 119.405C259.474 119.405 264.893 121.184 268.896 124.422C276.03 130.169 275.259 143.822 275.253 143.959C274.142 143.559 272.973 143.367 271.796 143.389C269.305 143.389 265.43 144.181 261.114 147.973L261.106 147.979L261.104 147.973Z" fill="#FFC930"/>
<path d="M244.764 178.112C252.332 177.989 256.157 175.541 256.157 175.541" stroke="#0D0D0D" stroke-width="4" stroke-linecap="round" stroke-linejoin="round"/>
<path d="M229.987 160.451C234.014 160.451 237.282 156.703 237.282 152.083C237.282 147.461 234.014 143.715 229.987 143.715C225.956 143.715 222.691 147.461 222.691 152.083C222.691 156.703 225.956 160.451 229.987 160.451Z" stroke="#242424" stroke-width="4" stroke-linecap="round" stroke-linejoin="round"/>
<path d="M248.375 160.451C252.406 160.451 255.671 156.703 255.671 152.083C255.671 147.461 252.406 143.715 248.375 143.715C244.345 143.715 241.08 147.461 241.08 152.083C241.08 156.703 244.345 160.451 248.375 160.451Z" stroke="#242424" stroke-width="4" stroke-linecap="round" stroke-linejoin="round"/>
<path d="M237.524 152.19H240.594" stroke="#242424" stroke-width="4" stroke-linecap="round" stroke-linejoin="round"/>
<path d="M255.912 151.033L260.868 148.176" stroke="#242424" stroke-width="4" stroke-linecap="round" stroke-linejoin="round"/>
<path d="M266.333 155.124L270.91 152.434" stroke="#0D0D0D" stroke-width="4" stroke-linecap="round" stroke-linejoin="round"/>
<path d="M238.306 164.538C239.543 165.21 241.697 164.941 242.506 163.598" stroke="#0D0D0D" stroke-width="4" stroke-linecap="round" stroke-linejoin="round"/>
<path d="M247.324 154.808C247.017 154.808 246.721 154.718 246.466 154.548C246.213 154.378 246.016 154.139 245.898 153.857C245.782 153.574 245.752 153.265 245.813 152.966C245.87 152.667 246.018 152.393 246.235 152.176C246.449 151.962 246.723 151.814 247.023 151.754C247.322 151.696 247.632 151.724 247.914 151.845C248.197 151.96 248.436 152.154 248.606 152.412C248.776 152.664 248.866 152.963 248.866 153.267C248.866 153.468 248.828 153.67 248.748 153.857C248.672 154.043 248.559 154.213 248.416 154.356C248.274 154.498 248.101 154.611 247.914 154.69C247.725 154.767 247.527 154.808 247.324 154.808Z" fill="#231F20"/>
<path d="M233.405 154.808C233.098 154.808 232.802 154.718 232.549 154.548C232.294 154.378 232.097 154.139 231.981 153.857C231.863 153.574 231.833 153.265 231.894 152.966C231.951 152.667 232.099 152.393 232.316 152.176C232.53 151.962 232.804 151.814 233.104 151.754C233.403 151.696 233.713 151.724 233.995 151.845C234.278 151.96 234.517 152.154 234.687 152.412C234.857 152.664 234.947 152.963 234.947 153.267C234.947 153.468 234.909 153.67 234.829 153.857C234.752 154.043 234.64 154.213 234.497 154.356C234.352 154.498 234.185 154.611 233.995 154.69C233.809 154.767 233.608 154.808 233.405 154.808Z" fill="#231F20"/>
<path d="M238.871 157.276C238.602 158.619 238.333 160.234 239.678 160.503" stroke="#0D0D0D" stroke-width="4" stroke-linecap="round" stroke-linejoin="round"/>
<path opacity="0.3" d="M244.839 178.099C244.921 178.085 252.318 177.652 256.096 175.576L244.839 188.314V178.099Z" fill="#0D0D0D"/>
<path d="M154.064 217.672V205.833" stroke="#242424" stroke-width="4" stroke-linecap="round" stroke-linejoin="round"/>
<path d="M158.534 217.672V205.833" stroke="#242424" stroke-width="4" stroke-linecap="round" stroke-linejoin="round"/>
<path d="M163.031 217.672V205.833" stroke="#242424" stroke-width="4" stroke-linecap="round" stroke-linejoin="round"/>
<path d="M145.073 217.672V205.833" stroke="#242424" stroke-width="4" stroke-linecap="round" stroke-linejoin="round"/>
<path d="M172.022 217.672V205.833" stroke="#242424" stroke-width="4" stroke-linecap="round" stroke-linejoin="round"/>
<path d="M176.519 217.672V205.833" stroke="#242424" stroke-width="4" stroke-linecap="round" stroke-linejoin="round"/>
<path d="M181.013 217.672V205.833" stroke="#242424" stroke-width="4" stroke-linecap="round" stroke-linejoin="round"/>
<path d="M185.483 217.672V205.833" stroke="#242424" stroke-width="4" stroke-linecap="round" stroke-linejoin="round"/>
<path d="M194.474 217.672V205.833" stroke="#242424" stroke-width="4" stroke-linecap="round" stroke-linejoin="round"/>
<path d="M161.739 137.887C157.209 137.881 152.868 136.083 149.669 132.883C146.467 129.684 144.664 125.343 144.661 120.822V107.695C144.656 107.018 144.785 106.352 145.037 105.724C145.29 105.102 145.666 104.534 146.138 104.052C146.612 103.572 147.175 103.188 147.798 102.928C148.418 102.664 149.084 102.527 149.759 102.522C149.776 102.522 149.795 102.522 149.812 102.522H173.638C175.01 102.525 176.324 103.067 177.296 104.038C178.264 105.006 178.813 106.322 178.816 107.695V120.822C178.81 125.343 177.008 129.684 173.806 132.883C170.606 136.083 166.263 137.881 161.739 137.887Z" fill="#6171FF"/>
<path d="M161.703 128.439C160.888 126.396 159.67 124.543 158.114 122.988C156.561 121.437 154.706 120.214 152.662 119.402C154.704 118.588 156.558 117.363 158.111 115.808C159.667 114.251 160.888 112.397 161.703 110.355C162.521 112.395 163.747 114.248 165.303 115.8C166.858 117.354 168.716 118.577 170.76 119.389C168.716 120.206 166.864 121.431 165.308 122.986C163.752 124.54 162.532 126.396 161.717 128.439L161.711 128.458L161.703 128.439Z" fill="white"/>
<path d="M219.407 217.68C216.926 217.677 214.55 216.688 212.797 214.938C211.044 213.187 210.059 210.812 210.056 208.337V200.775C212.043 197.954 214.295 195.33 216.789 192.942C225.893 184.322 244.66 183.985 244.847 183.982C245.154 185.978 245.689 187.93 246.435 189.803C248.447 194.68 251.193 195.941 253.141 196.142C254.074 196.238 255.012 196.29 255.951 196.29C270.27 196.29 274.948 184.111 274.992 183.988C274.995 183.988 275.001 183.988 275.012 183.988C275.563 183.988 287.668 184.174 297.03 190.683L297.033 208.337C297.025 210.815 296.034 213.192 294.275 214.944C292.517 216.693 290.138 217.68 287.655 217.68H219.407Z" fill="white"/>
<path d="M257.386 201.885C255.114 201.877 252.848 201.68 250.606 201.296C240.523 199.618 236.177 189.756 236.089 184.849C238.981 184.336 241.911 184.034 244.847 183.955C244.869 184.032 246.466 191.154 253.141 192.347C254.658 192.621 256.198 192.764 257.745 192.767C269.464 192.767 274.94 184.045 274.992 183.958C278.101 184.056 281.188 184.47 284.209 185.191C282.203 189.331 279.289 192.969 275.684 195.834C270.569 199.851 264.412 201.885 257.388 201.885H257.386Z" fill="#A7A7A7"/>
<path d="M273.467 185.926L281.813 188.884" stroke="#6C6C6C" stroke-width="4" stroke-linecap="round" stroke-linejoin="round"/>
<path d="M269.886 189.101L276.348 195.289" stroke="#6C6C6C" stroke-width="4" stroke-linecap="round" stroke-linejoin="round"/>
<path d="M264.16 191.939L268.566 199.593" stroke="#6C6C6C" stroke-width="4" stroke-linecap="round" stroke-linejoin="round"/>
<path d="M258.121 192.841L258.821 201.814" stroke="#6C6C6C" stroke-width="4" stroke-linecap="round" stroke-linejoin="round"/>
<path d="M252.304 192.298L249.64 201.038" stroke="#6C6C6C" stroke-width="4" stroke-linecap="round" stroke-linejoin="round"/>
<path d="M248.342 190.088L241.532 196.413" stroke="#6C6C6C" stroke-width="4" stroke-linecap="round" stroke-linejoin="round"/>
<path d="M245.601 186.661L237.417 189.836" stroke="#6C6C6C" stroke-width="4" stroke-linecap="round" stroke-linejoin="round"/>
<path opacity="0.3" d="M150.187 217.68C148.714 217.677 147.304 217.093 146.261 216.052C145.221 215.01 144.637 213.601 144.634 212.128V203.843C144.637 202.371 145.221 200.961 146.261 199.92C147.304 198.881 148.714 198.297 150.187 198.294H191.19C192.663 198.297 194.074 198.881 195.116 199.92C196.156 200.961 196.743 202.371 196.746 203.843V212.128C196.735 213.598 196.145 215.002 195.105 216.041C194.065 217.08 192.661 217.669 191.19 217.68H150.187Z" fill="#464969"/>
</svg>
